<svg width="36" height="36" viewBox="0 0 36 36" fill="none" xmlns="http://www.w3.org/2000/svg">

  <!-- Left speech bubble -->
  <rect x="0" y="0" width="15" height="10" rx="2.5" fill="#6c6ff0" />
  <path d="M 10 10 L 13 14.5 L 7 10 Z" fill="#6c6ff0" />
  <circle cx="4" cy="5" r="1.3" fill="white" />
  <circle cx="7.5" cy="5" r="1.3" fill="white" />
  <circle cx="11" cy="5" r="1.3" fill="white" />

  <!-- Right speech bubble -->
  <rect x="21" y="0" width="15" height="10" rx="2.5" fill="#6c6ff0" />
  <path d="M 26 10 L 23 14.5 L 29 10 Z" fill="#6c6ff0" />
  <circle cx="25" cy="5" r="1.3" fill="white" />
  <circle cx="28.5" cy="5" r="1.3" fill="white" />
  <circle cx="32" cy="5" r="1.3" fill="white" />

  <!-- Left robot -->
  <rect x="4" y="14" width="1.8" height="4.5" rx="0.6" fill="#6c6ff0" />
  <circle cx="4.9" cy="13.2" r="1.6" fill="#6c6ff0" />
  <ellipse cx="8" cy="26" rx="8" ry="8.5" fill="#6c6ff0" />
  <rect x="12.5" y="23" width="3" height="3" rx="0.6" fill="white" />

  <!-- Right robot -->
  <rect x="30.2" y="14" width="1.8" height="4.5" rx="0.6" fill="#6c6ff0" />
  <circle cx="31.1" cy="13.2" r="1.6" fill="#6c6ff0" />
  <ellipse cx="28" cy="26" rx="8" ry="8.5" fill="#6c6ff0" />
  <rect x="20.5" y="23" width="3" height="3" rx="0.6" fill="white" />

</svg>
